<svg width="640" height="480" xmlns="http://www.w3.org/2000/svg" xmlns:svg="http://www.w3.org/2000/svg">
    <g class="layer">
     <title>Layer 1</title>
     <rect fill="#bfbfbf" height="33" id="svg_1" stroke="#000000" stroke-width="0" width="640" x="0" y="439"/>
     <rect fill="#bfbfbf" height="438.00001" id="svg_3" stroke="#000000" stroke-width="0" width="28" x="269" y="1"/>
     <rect fill="#7f00ff" height="142" id="svg_5" stroke="#000000" stroke-width="0" transform="matrix(1 0 0 1 0 0)" width="86" x="176" y="275"/>
     <rect fill="#7f00ff" height="27" id="svg_6" stroke="#000000" stroke-width="0" transform="matrix(1 0 0 1 0 0)" width="62" x="262" y="390"/>
     <rect fill="#7f00ff" height="171.00001" id="svg_7" stroke="#000000" stroke-width="0" width="117" x="317" y="246"/>
     <rect fill="#7f00ff" height="31" id="svg_9" stroke="#000000" stroke-width="0" transform="matrix(1 0 0 1 0 0)" width="63" x="426" y="354"/>
     <rect fill="#7f00ff" height="204" id="svg_13" stroke="#000000" stroke-width="0" transform="matrix(1 0 0 1 0 0)" width="99" x="485" y="214"/>
     <rect fill="#ffffff" height="44" id="svg_16" stroke="#000000" stroke-width="0" width="18" x="566" y="214"/>
     <rect fill="#7f00ff" height="118" id="svg_18" stroke="#000000" stroke-width="0" transform="matrix(1 0 0 1 0 0)" width="70" x="16" y="159"/>
     <rect fill="#e8bb92" height="126" id="svg_20" stroke="#000000" stroke-width="0" width="137" x="92" y="118"/>
    </g>
   </svg>
